<?xml version="1.0" encoding="UTF-8" standalone="no"?>
<!DOCTYPE svg PUBLIC "-//W3C//DTD SVG 1.1//EN" "http://www.w3.org/Graphics/SVG/1.1/DTD/svg11.dtd">
<svg width="100%" height="100%" viewBox="0 0 76 76" version="1.1" xmlns="http://www.w3.org/2000/svg" xmlns:xlink="http://www.w3.org/1999/xlink" xml:space="preserve" xmlns:serif="http://www.serif.com/" style="fill-rule:evenodd;clip-rule:evenodd;stroke-linejoin:round;stroke-miterlimit:2;">
    <g transform="matrix(1,0,0,1,-437.779,-22)">
        <g transform="matrix(0.68,0,0,0.583333,0,0)">
            <g id="plain" transform="matrix(5.88235,0,0,6.85714,455.557,-113.143)">
                <rect x="32" y="22" width="19" height="19" style="fill:rgb(235,235,235);"/>
            </g>
            <g transform="matrix(0.397706,0,0,0.463612,598.857,-6.32345)">
                <path d="M317,301.373C317,300.213 316.539,299.101 315.719,298.281C314.899,297.461 313.787,297 312.627,297C293.091,297 213.909,297 194.373,297C193.213,297 192.101,297.461 191.281,298.281C190.461,299.101 190,300.213 190,301.373C190,304.182 190,307.818 190,310.627C190,311.787 190.461,312.899 191.281,313.719C192.101,314.539 193.213,315 194.373,315C213.909,315 293.091,315 312.627,315C313.787,315 314.899,314.539 315.719,313.719C316.539,312.899 317,311.787 317,310.627C317,307.818 317,304.182 317,301.373Z"/>
                <path d="M200.518,221C198.736,221 197.128,219.932 196.436,218.29C195.745,216.648 196.105,214.751 197.35,213.476C211.199,199.3 240.639,169.165 250.332,159.243C251.165,158.39 252.307,157.909 253.5,157.909C254.693,157.909 255.835,158.39 256.668,159.243C266.361,169.165 295.801,199.3 309.65,213.476C310.895,214.751 311.255,216.648 310.564,218.29C309.872,219.932 308.264,221 306.482,221L296.174,221C282,221 282,260.175 282,273.571C282,274.746 281.533,275.872 280.703,276.703C279.872,277.533 278.746,278 277.571,278C267.259,278 241.741,278 231.429,278C230.254,278 229.128,277.533 228.297,276.703C227.467,275.872 227,274.746 227,273.571C227,260.175 227,221 227,221L200.518,221Z"/>
                <g transform="matrix(3.69767,0,0,3.69767,-1505.78,13.6395)">
                    <rect x="483.543" y="56.079" width="3.777" height="10.563" style="fill:rgb(235,235,235);"/>
                </g>
            </g>
        </g>
    </g>
</svg>
