<?xml version="1.0" encoding="UTF-8" standalone="no"?>
<!DOCTYPE svg PUBLIC "-//W3C//DTD SVG 1.1//EN" "http://www.w3.org/Graphics/SVG/1.1/DTD/svg11.dtd">
<svg width="100%" height="100%" viewBox="0 0 76 76" version="1.1" xmlns="http://www.w3.org/2000/svg" xmlns:xlink="http://www.w3.org/1999/xlink" xml:space="preserve" xmlns:serif="http://www.serif.com/" style="fill-rule:evenodd;clip-rule:evenodd;stroke-linejoin:round;stroke-miterlimit:2;">
    <g transform="matrix(1,0,0,1,-238.369,-22)">
        <g transform="matrix(0.68,0,0,0.583333,0,0)">
            <g id="shapes" transform="matrix(5.88235,0,0,6.85714,162.308,-113.143)">
                <rect x="32" y="22" width="19" height="19" style="fill:rgb(235,235,235);"/>
            </g>
            <g transform="matrix(2.36847,0,0,2.76096,406.426,102.857)">
                <g transform="matrix(1,0,0,1,-16,-16)">
                    <g>
                        <path d="M11.5,21C6.3,21 2,16.7 2,11.5C2,6.3 6.3,2 11.5,2C16.7,2 21,6.3 21,11.5C21,16.7 16.7,21 11.5,21Z" style="fill:white;fill-rule:nonzero;"/>
                    </g>
                    <path d="M29,12L23,12C22.7,17.9 18,22.7 12,23L12,29C12,29.6 12.4,30 13,30L29,30C29.6,30 30,29.6 30,29L30,13C30,12.4 29.6,12 29,12Z" style="fill:white;fill-rule:nonzero;"/>
                </g>
            </g>
        </g>
    </g>
</svg>
