<?xml version="1.0" encoding="UTF-8" standalone="no"?>
<!DOCTYPE svg PUBLIC "-//W3C//DTD SVG 1.1//EN" "http://www.w3.org/Graphics/SVG/1.1/DTD/svg11.dtd">
<svg width="100%" height="100%" viewBox="0 0 87 53" version="1.1" xmlns="http://www.w3.org/2000/svg" xmlns:xlink="http://www.w3.org/1999/xlink" xml:space="preserve" xmlns:serif="http://www.serif.com/" style="fill-rule:evenodd;clip-rule:evenodd;stroke-linecap:round;stroke-linejoin:round;stroke-miterlimit:1.5;">
    <g id="esc">
        <path d="M85.145,11.64C85.145,8.474 82.579,5.908 79.413,5.908C64.052,5.908 22.093,5.908 6.732,5.908C3.566,5.908 1,8.474 1,11.64C1,20.46 1,37.26 1,46.08C1,49.246 3.566,51.813 6.732,51.813C22.093,51.813 64.052,51.813 79.413,51.813C82.579,51.813 85.145,49.246 85.145,46.08C85.145,37.26 85.145,20.46 85.145,11.64Z" style="fill:rgb(214,66,70);stroke:black;stroke-width:2px;"/>
        <path d="M85.145,6.732C85.145,3.566 82.579,1 79.413,1C64.052,1 22.093,1 6.732,1C3.566,1 1,3.566 1,6.732C1,15.552 1,32.353 1,41.172C1,44.338 3.566,46.905 6.732,46.905C22.093,46.905 64.052,46.905 79.413,46.905C82.579,46.905 85.145,44.338 85.145,41.172C85.145,32.353 85.145,15.552 85.145,6.732Z" style="fill:rgb(255,94,97);stroke:black;stroke-width:2px;"/>
        <text x="19.63px" y="31.437px" style="font-family:'LucidaGrande-Bold', 'Lucida Grande', sans-serif;font-weight:600;font-size:27.921px;fill:white;">esc</text>
    </g>
</svg>
