<?xml version="1.0" encoding="UTF-8" standalone="no"?>
<!DOCTYPE svg PUBLIC "-//W3C//DTD SVG 1.1//EN" "http://www.w3.org/Graphics/SVG/1.1/DTD/svg11.dtd">
<svg width="100%" height="100%" viewBox="0 0 68 71" version="1.1" xmlns="http://www.w3.org/2000/svg" xmlns:xlink="http://www.w3.org/1999/xlink" xml:space="preserve" xmlns:serif="http://www.serif.com/" style="fill-rule:evenodd;clip-rule:evenodd;stroke-linecap:round;stroke-linejoin:round;stroke-miterlimit:1.5;">
    <g transform="matrix(1,0,0,1,-366.472,-311.754)">
        <g id="r" transform="matrix(1,0,0,1,-595.022,-242.5)">
            <g transform="matrix(1,0,0,1,0,6)">
                <path d="M1027.21,561.487C1027.21,559.966 1026.61,558.508 1025.53,557.433C1024.45,556.358 1023,555.754 1021.48,555.754C1009.29,555.754 980.915,555.754 968.726,555.754C967.206,555.754 965.748,556.358 964.673,557.433C963.598,558.508 962.994,559.966 962.994,561.487C962.994,573.279 962.994,600.134 962.994,611.926C962.994,613.447 963.598,614.905 964.673,615.98C965.748,617.055 967.206,617.659 968.726,617.659C980.915,617.659 1009.29,617.659 1021.48,617.659C1023,617.659 1024.45,617.055 1025.53,615.98C1026.61,614.905 1027.21,613.447 1027.21,611.926C1027.21,600.134 1027.21,573.279 1027.21,561.487Z" style="stroke:black;stroke-width:3px;"/>
            </g>
            <path d="M1027.21,561.487C1027.21,559.966 1026.61,558.508 1025.53,557.433C1024.45,556.358 1023,555.754 1021.48,555.754C1009.29,555.754 980.915,555.754 968.726,555.754C967.206,555.754 965.748,556.358 964.673,557.433C963.598,558.508 962.994,559.966 962.994,561.487C962.994,573.279 962.994,600.134 962.994,611.926C962.994,613.447 963.598,614.905 964.673,615.98C965.748,617.055 967.206,617.659 968.726,617.659C980.915,617.659 1009.29,617.659 1021.48,617.659C1023,617.659 1024.45,617.055 1025.53,615.98C1026.61,614.905 1027.21,613.447 1027.21,611.926C1027.21,600.134 1027.21,573.279 1027.21,561.487Z" style="fill:rgb(255,254,255);stroke:black;stroke-width:3px;"/>
            <g transform="matrix(1,0,0,1,596.115,409.795)">
                <text x="389px" y="187px" style="font-family:'LucidaGrande-Bold', 'Lucida Grande', sans-serif;font-weight:600;font-size:27.921px;">R</text>
            </g>
        </g>
    </g>
</svg>
